<svg height="358pt" viewBox="0 -6 358.02731 358" width="358pt" xmlns="http://www.w3.org/2000/svg"><path d="m225.6875 55.890625 28.964844-28.960937 67.578125 67.578124-28.960938 28.964844zm0 0" fill="#999"/><path d="m322.234375 94.507812 4.828125-4.828124-67.582031-67.578126c-2.664063-2.667968-6.988281-2.667968-9.652344 0l-28.964844 28.960938c-1.269531 1.269531-2 3.027344-2 4.828125 0 1.796875.730469 3.554687 2 4.824219l67.582031 67.582031c1.273438 1.273437 3.03125 2 4.828126 2 1.796874 0 3.554687-.730469 4.824218-2l28.964844-28.964844c1.269531-1.269531 2-3.027343 2-4.824219 0-1.796874-.730469-3.558593-2-4.828124l-4.828125 4.828124-4.824219-4.828124-24.136718 24.132812-57.925782-57.925781 19.308594-19.308594 62.753906 62.753906 4.824219-4.824219-4.824219-4.828124zm0 0" fill="#54596e"/><path d="m274.867188 292.9375c61.316406-61.320312 61.316406-160.734375 0-222.054688-61.320313-61.316406-160.734376-61.316406-222.054688 0-61.316406 61.320313-61.316406 160.730469 0 222.054688 61.320312 61.316406 160.734375 61.316406 222.054688 0" fill="#999"/><path d="m274.867188 292.9375 4.828124 4.828125c31.976563-31.976563 47.992188-73.949219 47.984376-115.855469.007812-41.90625-16.007813-83.878906-47.984376-115.855468-31.976562-31.976563-73.949218-47.992188-115.855468-47.984376-41.90625-.007812-83.878906 16.007813-115.851563 47.984376-31.980469 31.976562-47.9960935 73.949218-47.988281 115.855468-.0078125 41.90625 16.007812 83.878906 47.988281 115.855469 31.972657 31.976563 73.945313 47.992187 115.851563 47.984375 41.90625.007812 83.878906-16.007812 115.855468-47.984375l-9.65625-9.65625c-29.347656 29.335937-67.742187 43.980469-106.199218 43.988281-38.460938-.007812-76.855469-14.652344-106.199219-43.988281-29.335937-29.347656-43.980469-67.742187-43.988281-106.199219.007812-38.457031 14.652344-76.855468 43.988281-106.199218 29.34375-29.339844 67.738281-43.980469 106.199219-43.988282 38.457031.007813 76.855468 14.648438 106.199218 43.988282 29.335938 29.34375 43.980469 67.738281 43.988282 106.199218-.007813 38.457032-14.652344 76.855469-43.988282 106.199219z" fill="#54596e"/><path d="m52.488281 81.121094c-25.898437 28.566406-38.828125 64.652344-38.835937 100.789062.007812 38.457032 14.648437 76.855469 43.988281 106.199219 29.34375 29.335937 67.738281 43.980469 106.199219 43.988281 36.136718-.007812 72.21875-12.9375 100.789062-38.839844-22.960937 12.191407-48.304687 18.289063-73.644531 18.289063-40.128906 0-80.238281-15.292969-110.867187-45.917969-49.964844-49.964844-59.117188-125.1875-27.628907-184.507812" fill="#8b8c90"/><g fill="#54596e"><path d="m67.394531 58.15625c-5.035156 3.933594-9.949219 8.09375-14.582031 12.726562-61.320312 61.320313-61.320312 160.730469 0 222.054688 30.660156 30.65625 70.84375 45.984375 111.027344 45.984375s80.367187-15.328125 111.023437-45.984375c4.628907-4.632812 8.792969-9.546875 12.726563-14.582031-7.296875 5.699219-14.988282 10.671875-22.960938 14.902343-28.570312 25.902344-64.65625 38.832032-100.792968 38.839844-38.460938-.007812-76.855469-14.652344-106.199219-43.988281-29.335938-29.347656-43.980469-67.742187-43.988281-106.199219.007812-36.136718 12.9375-72.222656 38.839843-100.789062 4.234375-7.976563 9.199219-15.660156 14.90625-22.964844"/><path d="m295.273438 60.714844h-.535157l.535157.007812v-.007812h-.535157l.535157.007812c-.007813-.375.164062-7.050781 2.925781-14.894531 2.78125-7.890625 7.933593-16.722656 17.894531-22.703125 13.53125-8.097656 23.203125-9.441406 28.464844-9.453125 1.753906 0 3.023437.15625 3.78125.285156l.746094.15625.078124.019531 1.035157-3.511718-1.160157 3.472656.125.039062 1.035157-3.515624-1.160157 3.472656c3.574219 1.195312 7.441407-.738282 8.636719-4.316406 1.191407-3.574219-.738281-7.441407-4.316406-8.636719-.601563-.203125-3.660156-1.121094-8.800781-1.121094-7.714844-.015625-20.054688 2.121094-35.488282 11.398437-13.855468 8.3125-20.757812 20.8125-24.082031 30.847657-3.351562 10.089843-3.359375 17.976562-3.367187 18.453125 0 3.769531 3.054687 6.824218 6.824218 6.824218 3.773438 0 6.828126-3.050781 6.828126-6.824218zm0 0"/><path d="m95.570312 164.84375c0 5.65625-4.582031 10.238281-10.238281 10.238281s-10.242187-4.582031-10.242187-10.238281 4.585937-10.238281 10.242187-10.238281 10.238281 4.582031 10.238281 10.238281zm0 0"/><path d="m238.929688 164.84375c0 5.65625-4.582032 10.238281-10.238282 10.238281s-10.238281-4.582031-10.238281-10.238281 4.582031-10.238281 10.238281-10.238281 10.238282 4.582031 10.238282 10.238281zm0 0"/><path d="m121.730469 247.136719 7.972656-11.960938 7.976563 11.960938c1.265624 1.898437 3.398437 3.039062 5.679687 3.039062s4.414063-1.140625 5.679687-3.039062l7.972657-11.960938 7.972656 11.960938c1.265625 1.898437 3.398437 3.039062 5.679687 3.039062s4.414063-1.140625 5.679688-3.039062l7.972656-11.960938 7.976563 11.960938c2.089843 3.136719 6.328125 3.984375 9.464843 1.890625 3.136719-2.089844 3.984376-6.328125 1.894532-9.464844l-13.652344-20.480469c-1.269531-1.898437-3.398438-3.039062-5.683594-3.039062-2.28125 0-4.410156 1.140625-5.679687 3.039062l-7.972657 11.960938-7.972656-11.960938c-1.265625-1.898437-3.398437-3.039062-5.679687-3.039062s-4.414063 1.140625-5.679688 3.039062l-7.972656 11.960938-7.976563-11.960938c-1.265624-1.898437-3.394531-3.039062-5.679687-3.039062-2.28125 0-4.410156 1.140625-5.679687 3.039062l-13.652344 20.480469c-2.089844 3.136719-1.242188 7.375 1.894531 9.464844 3.136719 2.09375 7.375 1.246094 9.464844-1.890625zm0 0"/><path d="m73.4375 154.398438 27.304688 6.828124c3.65625.914063 7.363281-1.308593 8.28125-4.96875.914062-3.65625-1.3125-7.363281-4.96875-8.277343l-27.304688-6.828125c-3.660156-.914063-7.367188 1.308594-8.28125 4.96875-.914062 3.65625 1.308594 7.363281 4.96875 8.277344"/><path d="m237.277344 141.152344-27.308594 6.828125c-3.65625.914062-5.878906 4.621093-4.964844 8.277343.914063 3.660157 4.621094 5.882813 8.277344 4.96875l27.308594-6.828124c3.65625-.914063 5.878906-4.621094 4.964844-8.277344-.914063-3.660156-4.621094-5.882813-8.277344-4.96875"/></g></svg>