<?xml version="1.0" encoding="iso-8859-1"?>
<!-- Generator: Adobe Illustrator 19.0.0, SVG Export Plug-In . SVG Version: 6.00 Build 0)  -->
<svg version="1.1" id="Layer_1" xmlns="http://www.w3.org/2000/svg" xmlns:xlink="http://www.w3.org/1999/xlink" x="0px" y="0px"
	 viewBox="0 0 511.993 511.993" style="enable-background:new 0 0 511.993 511.993;" xml:space="preserve">
<circle style="fill:#FF3D62;" cx="255.996" cy="255.996" r="255.996"/>
<path style="fill:#C2001B;" d="M510.593,282.926l-65.083-65.083c-37.42-40.052-108.822-83.747-191.077-83.747
	c-110.586,0-201.576,78.981-216.711,121.903c4.832,13.701,17.4,31.075,35.858,48.381l206.485,206.485
	C401.284,499.562,497.961,403.755,510.593,282.926z"/>
<path style="fill:#FFFFFF;" d="M254.433,134.097c-110.586,0-201.576,78.981-216.711,121.903
	c15.135,42.922,106.124,121.902,216.711,121.902s201.576-78.981,216.711-121.903C456.008,213.078,365.019,134.097,254.433,134.097z"
	/>
<path style="fill:#E1E1E3;" d="M471.143,255.999c-15.069-42.736-105.339-121.207-215.276-121.887v243.774
	C365.804,377.207,456.074,298.736,471.143,255.999z"/>
<g>
	<path style="fill:#3A4DE3;" d="M357.128,279.005c4.247-18.757,3.286-38.302-2.778-56.525l-25.588,8.517
		c9.404,28.255,2.179,58.875-18.857,79.911c-30.432,30.432-79.95,30.433-110.384,0.001c-30.432-30.433-30.432-79.95,0-110.384
		c21.036-21.036,51.656-28.261,79.911-18.857l8.517-25.587c-18.222-6.065-37.767-7.026-56.524-2.778
		c-19.297,4.37-36.922,14.105-50.971,28.154c-40.948,40.948-40.948,107.574,0,148.522c40.947,40.947,107.574,40.947,148.522-0.001
		C343.024,315.927,352.759,298.301,357.128,279.005z"/>
	<circle style="fill:#3A4DE3;" cx="254.429" cy="255.996" r="54.783"/>
</g>
<g>
	<path style="fill:#1C2EDE;" d="M279.433,181.667l8.517-25.587c-10.394-3.46-21.218-5.252-32.082-5.371v26.922
		C263.736,177.764,271.673,179.085,279.433,181.667z"/>
	<path style="fill:#1C2EDE;" d="M354.349,222.48l-25.588,8.517c9.404,28.255,2.179,58.875-18.857,79.911
		c-14.923,14.924-34.436,22.51-54.037,22.797v26.968c26.508-0.289,52.925-10.517,73.106-30.698
		c14.05-14.049,23.785-31.675,28.154-50.971C361.375,260.248,360.415,240.701,354.349,222.48z"/>
	<path style="fill:#1C2EDE;" d="M309.216,255.999c0-29.775-23.759-53.985-53.35-54.748v109.496
		C285.458,309.984,309.216,285.776,309.216,255.999z"/>
</g>
<g>
</g>
<g>
</g>
<g>
</g>
<g>
</g>
<g>
</g>
<g>
</g>
<g>
</g>
<g>
</g>
<g>
</g>
<g>
</g>
<g>
</g>
<g>
</g>
<g>
</g>
<g>
</g>
<g>
</g>
</svg>
